<svg width="182" height="182" viewBox="0 0 182 182" fill="none" xmlns="http://www.w3.org/2000/svg">
<mask id="mask0" style="mask-type:alpha" maskUnits="userSpaceOnUse" x="0" y="0" width="182" height="182">
<circle cx="91" cy="91" r="91" fill="#EB3F3F"/>
</mask>
<g mask="url(#mask0)">
<circle cx="91" cy="91" r="91" fill="#5989B6"/>
<circle cx="91" cy="90" r="75" fill="#B6D6EF"/>
<path d="M56.5893 108.273C57.6776 101.119 59.1585 92.573 61.0319 82.6361C62.9173 72.6363 65.7455 59.3625 69.5167 42.8147C75.1672 41.861 80.7597 41.9059 86.2942 42.9494C91.8915 44.0047 96.4687 47.0169 100.026 51.9859C103.657 56.9039 104.88 62.5075 103.695 68.7967C102.521 75.023 99.1111 79.9812 93.4657 83.6711C87.8951 87.31 81.0718 89.4753 72.9958 90.1671C71.6678 97.211 70.3985 104.461 69.188 111.918L56.5893 108.273ZM85.4834 75.2301C88.3203 72.9644 90.0529 70.165 90.6814 66.8317C91.3098 63.4984 90.9392 60.6281 89.5695 58.2206C88.2627 55.825 86.5402 54.4257 84.4019 54.0225C83.8358 53.9158 82.5169 53.83 80.4451 53.765C78.4587 62.5735 76.6515 71.1226 75.0234 79.4125C79.2228 78.9017 82.7094 77.5076 85.4834 75.2301Z" fill="black"/>
<path d="M125.05 73.3675C123.871 80.5074 122.282 89.0334 120.282 98.9458C118.27 108.921 115.274 122.158 111.293 138.656C105.631 139.538 100.039 139.422 94.5183 138.309C88.9348 137.182 84.3962 134.112 80.9026 129.098C77.3337 124.135 76.1819 118.516 77.4474 112.242C78.7002 106.032 82.1725 101.117 87.8643 97.4991C93.4807 93.9312 100.331 91.8527 108.415 91.2636C109.832 84.2371 111.194 77.0034 112.499 69.5626L125.05 73.3675ZM95.7388 106.041C92.8734 108.27 91.1054 111.047 90.4346 114.373C89.7639 117.698 90.0981 120.572 91.4371 122.997C92.7134 125.409 94.418 126.83 96.5511 127.26C97.1157 127.374 98.4334 127.477 100.504 127.568C102.602 118.786 104.518 110.26 106.251 101.991C102.046 102.449 98.5415 103.799 95.7388 106.041Z" fill="#5989B6"/>
<path d="M57 117L59.9187 125.292H69.3637L61.7225 130.416L64.6412 138.708L57 133.584L49.3588 138.708L52.2775 130.416L44.6363 125.292H54.0813L57 117Z" fill="#84A8C9"/>
<path d="M127 64.0014L124.082 55.7093L114.637 55.7083L122.279 50.5845L119.361 42.2924L127.002 47.4178L134.643 42.2939L131.724 50.5854L139.365 55.7108L129.92 55.7099L127 64.0014Z" fill="#84A8C9"/>
<path d="M5.04625 43.1249C14.8999 39.7277 26.2398 42.5969 35.6678 45.9645C45.7394 49.5621 55.9303 54.7114 64.755 61.0439C69.7304 64.6142 74.0931 68.7488 78.4044 73.1938C84.8523 79.8418 91.4888 86.1479 97.5159 93.2649C109.337 107.224 120.655 121.623 133.161 134.892C141.635 143.884 151.43 153.547 162.726 158.224C170.815 161.573 181.29 161.27 189.624 159.072C197.455 157.007 206.004 155.384 213.297 151.539" stroke="white" stroke-width="3" stroke-linecap="round"/>
<path d="M9.7678 43.1942C19.8992 40.9315 30.8007 45.0391 39.7544 49.4265C49.3194 54.1135 58.8288 60.3502 66.854 67.6056C71.3786 71.6963 75.2338 76.2772 79.0034 81.1597C84.6411 88.4619 90.5037 95.4469 95.6724 103.166C105.81 118.307 115.401 133.828 126.293 148.362C133.674 158.211 142.287 168.872 152.943 174.765C160.573 178.985 170.974 179.855 179.467 178.61C187.448 177.44 196.09 176.789 203.738 173.796" stroke="white" stroke-width="3" stroke-linecap="round"/>
<path d="M93.7225 101.071C94.6145 100.678 95.4697 100.245 96.3995 99.9387C98.0692 99.3892 99.8261 99.0925 101.552 98.7698C103.453 98.4142 105.336 97.7094 107.275 97.5871C107.524 97.5714 107.773 97.5642 108.022 97.5642C108.123 97.5642 108.238 97.5471 108.098 97.6421C107.426 98.0956 106.709 98.4521 105.934 98.6918C104.859 99.0243 103.742 99.2696 102.634 99.4619C101.773 99.6112 100.845 99.6589 100.005 99.8974C99.2581 100.109 98.4877 100.301 97.7678 100.596C97.1678 100.843 96.5742 101.105 95.9778 101.36C95.6276 101.509 94.7165 101.929 94.5247 101.364C94.2536 100.566 95.0688 99.9954 95.6294 99.6086C96.8787 98.7467 98.3028 98.3108 99.7824 98.0272C101.186 97.758 102.61 97.6384 104.029 97.484C104.651 97.4163 105.247 97.3109 105.842 97.1195C105.932 97.0906 106.038 97.0737 106.122 97.0279C106.309 96.9252 105.696 96.9864 105.483 96.9912C103.028 97.0467 100.574 97.3674 98.1253 97.5413C95.3321 97.7396 92.5226 97.9943 89.7597 98.4718C89.6211 98.4957 89.4603 98.5155 89.3288 98.5704C89.0115 98.7026 89.9543 98.2851 90.2708 98.1509C92.4113 97.243 94.645 96.7312 96.9312 96.354C98.2908 96.1297 99.7414 96.0315 101.057 95.5931C101.278 95.5195 101.502 95.4613 101.726 95.3983C101.857 95.3615 101.978 95.3054 102.106 95.2631C102.211 95.2288 102.405 95.2269 102.489 95.153C102.497 95.146 102.08 95.1575 102.079 95.1576C101.664 95.2052 101.262 95.3107 100.86 95.4189C100.293 95.5712 99.74 95.7435 99.1865 95.9369C98.6551 96.1226 98.1278 96.3204 97.5913 96.4915C97.3459 96.5698 96.6217 96.8355 96.8556 96.7276C97.0365 96.6441 97.204 96.5 97.3644 96.3861C97.8967 96.008 98.4369 95.6526 99.0031 95.3272C99.667 94.9457 100.352 94.5621 101.135 94.5182C101.794 94.4812 102.44 94.5491 103.097 94.5846C103.297 94.5955 103.515 94.5656 103.713 94.5961C103.727 94.5983 103.356 94.7472 103.317 94.7588C102.439 95.0181 101.551 95.0476 100.642 95.0476C99.9116 95.0476 99.1758 95.0684 98.4485 94.988C98.0737 94.9466 97.5953 94.9007 97.2406 94.7588C97.0773 94.6935 97.8281 94.2719 97.8892 94.2408C98.6017 93.8795 99.4835 93.9848 100.255 94.0804C100.658 94.1304 101.066 94.1138 101.472 94.1652C101.953 94.2262 102.45 94.2842 102.922 94.3967C103.133 94.4469 103.02 94.6078 102.909 94.7428C102.436 95.3163 101.596 95.6903 100.947 96.0148C99.9251 96.5256 98.8384 96.9092 97.8961 97.5688C96.9053 98.2623 96.1429 99.0841 95.3543 99.9891C94.9263 100.48 94.4545 101.011 93.9173 101.392C93.8087 101.469 93.6816 101.525 93.6491 101.667C93.5462 102.117 95.1272 102.051 95.3498 102.061C95.9451 102.089 96.5417 102.12 97.1375 102.134C97.49 102.143 97.8539 102.142 98.2055 102.144C98.5643 102.145 99.127 102.064 99.4867 102.169C99.6894 102.228 99.0755 102.264 98.8702 102.313C98.4637 102.41 98.0684 102.516 97.6509 102.556C97.101 102.608 96.5394 102.657 95.9938 102.744C95.8661 102.764 95.7416 102.801 95.6202 102.845C95.5774 102.86 96.5186 102.65 96.5553 102.641C99.1561 101.986 101.74 101.267 104.334 100.585C105.262 100.341 106.169 100.027 107.094 99.7736C107.934 99.5437 108.789 99.3534 109.638 99.1548C110.147 99.0357 110.657 98.8343 111.173 98.7606" stroke="#5989B6" stroke-width="3" stroke-linecap="round"/>
<path d="M55.6348 56.9321C55.7167 57.3717 56.1937 57.8401 56.5738 58.0733C56.8304 58.2308 57.065 58.394 57.3466 58.5091C57.6957 58.652 58.0256 58.9979 58.335 59.237C58.5724 59.4204 58.8043 59.5748 59.0808 59.6908C59.3775 59.8152 59.7233 59.8607 59.9525 60.0951C60.3134 60.4645 60.6379 60.6468 61.0937 60.8747C61.4998 61.0777 61.8664 61.3644 62.2663 61.5643C62.535 61.6987 62.7277 61.946 62.9739 62.1102C63.0838 62.1835 63.2015 62.3153 63.2952 62.409C63.4086 62.5224 63.5808 62.5757 63.7198 62.6539C63.9298 62.772 64.1642 62.8548 64.369 62.9571" stroke="white" stroke-width="3" stroke-linecap="round"/>
<path d="M77.066 73.0662C76.8162 73.3814 76.6677 73.7656 76.3876 74.0457C76.1176 74.3156 76.1434 74.7614 76.1831 75.1127C76.259 75.7827 76.6754 76.5042 77.0031 77.0761C77.1623 77.3539 77.5229 78.0327 77.9152 78.0399C78.2758 78.0464 78.5477 77.8494 78.7643 77.5771C78.8718 77.442 78.9598 77.2943 79.0249 77.1346C79.0526 77.0667 79.0805 76.9482 79.1507 76.9099C79.4346 76.7551 79.96 77.0143 80.0493 77.312C80.132 77.5876 79.4029 77.6217 79.29 77.6265C78.6781 77.6526 78.3695 77.2118 78.0387 76.7639C77.8094 76.4533 77.4798 76.0042 77.394 75.6182C77.3495 75.418 77.6345 75.3306 77.7714 75.2498C77.854 75.2009 78.2285 74.94 78.3285 74.9757C78.8127 75.1486 79.0766 75.9169 79.162 76.3595C79.2152 76.6359 79.2091 76.9152 79.2091 77.1952C79.2091 77.2903 79.238 77.4481 79.1822 77.5344C78.9889 77.8332 78.8664 78.0563 78.7913 78.4263C78.7465 78.6466 78.6946 78.9696 78.7845 79.1833C78.9224 79.5108 79.4297 79.6382 79.7348 79.7023C80.1588 79.7914 81.1051 79.8719 81.3073 79.3159C81.3783 79.1207 81.9189 79.0678 82.0801 79.1811C82.2523 79.3021 82.3883 79.3886 82.435 79.5989C82.5013 79.8969 81.9772 80.057 81.7746 80.1381C81.6474 80.189 81.1501 80.2451 81.1501 80.4503C81.1501 80.6879 81.1488 80.9025 81.2804 81.113C81.7729 81.9011 82.42 81.6062 83.1382 81.2838C83.5633 81.0929 83.9562 81.1274 84.376 81.3242C84.96 81.598 84.2436 81.9259 84.084 82.2453C83.8986 82.6159 82.723 83.5276 83.5448 83.8537C83.7889 83.9506 84.2196 83.9448 84.4658 83.8627C84.6887 83.7884 84.8546 83.5271 85.032 83.382C85.2678 83.189 86.007 83.1574 86.2271 83.3775C86.2771 83.4275 86.2547 83.628 86.2181 83.6785C85.93 84.0759 85.5806 84.395 85.3375 84.8309C85.1535 85.1608 85.032 85.4905 85.032 85.8666C85.032 86.4838 86.1401 86.2092 86.4517 86.0822C86.9104 85.8954 87.3868 85.572 87.9119 85.6913C88.2484 85.7678 88.431 86.058 88.3388 86.3922C88.2808 86.6024 87.9889 86.8714 87.8468 87.0302C87.7032 87.1907 87.4515 87.1803 87.2739 87.2998C87.065 87.4404 87.1129 87.7263 87.256 87.8974C87.5011 88.1906 87.9662 88.2048 88.3118 88.104C88.619 88.0144 88.9505 88.0016 89.2396 87.8681C89.4592 87.7668 89.6555 87.6052 89.8978 87.5514C90.1275 87.5004 90.3342 87.6971 90.5133 87.8075C90.5625 87.8378 90.814 87.9567 90.7986 88.0411C90.7937 88.0683 90.5701 88.1093 90.5313 88.1287C90.3572 88.2158 89.5276 88.3428 89.5204 88.5219C89.5062 88.8766 89.5166 89.1799 89.7001 89.4968C89.7346 89.5564 89.8484 89.6812 89.8911 89.5575C90.0551 89.0817 90.2164 88.6137 90.41 88.149" stroke="white" stroke-width="3" stroke-linecap="round"/>
<rect x="65.7692" y="59.5849" width="10.4448" height="13.7786" transform="rotate(11.5768 65.7692 59.5849)" fill="black"/>
<rect x="67.552" y="66" width="9.93473" height="13.2586" transform="rotate(11.0975 67.552 66)" fill="black"/>
<path d="M87.7816 89.2812C87.5278 89.5598 87.539 89.8083 87.539 90.1663C87.539 90.2958 87.5173 90.4196 87.6199 90.5167C87.8834 90.7664 88.3373 90.375 88.5432 90.2539C88.8069 90.0988 88.9868 89.8741 89.2823 89.7574C89.6939 89.5949 90.1019 89.477 90.5268 89.3598C90.6105 89.3367 91.2141 89.1066 91.1693 89.3396C91.093 89.7365 90.4799 90.0783 90.1584 90.2337C89.676 90.4669 89.1848 90.6625 88.7117 90.9166C88.5322 91.013 88.1684 91.1189 88.1141 91.3524C88.0471 91.6404 88.4918 91.5456 88.6622 91.5456C89.728 91.5456 90.7844 91.2203 91.7803 90.8582C92.185 90.7111 92.5648 90.4078 92.9799 90.3011C93.0566 90.2814 93.02 90.3329 92.9844 90.3685C92.7599 90.593 92.4983 90.7952 92.2409 90.9795C91.5307 91.4879 90.6941 91.7109 89.9158 92.0848C89.8226 92.1295 89.5985 92.167 89.6417 92.3139C89.6913 92.4825 91.1419 92.3348 91.2771 92.3206C92.2772 92.2157 93.2422 91.9062 94.2245 91.7074C94.3712 91.6777 94.2958 91.7448 94.2245 91.8152C93.9185 92.1173 93.5568 92.3474 93.1844 92.5588C92.2812 93.0714 91.3296 93.3957 90.3741 93.7831C89.2466 94.2402 92.7091 93.0679 93.8066 92.543C93.9082 92.4945 94.0258 92.3967 94.1346 92.3656C94.2916 92.3207 93.886 92.5775 93.7572 92.6778C93.1296 93.167 92.399 93.5017 91.65 93.7606C90.9563 94.0004 93.0261 93.2304 93.6584 92.8575C93.9703 92.6736 94.1477 92.6778 94.4941 92.6778C94.5533 92.6778 94.9302 92.6374 94.7165 92.6374C94.5749 92.6374 94.4334 92.6374 94.2919 92.6374" stroke="white" stroke-width="3" stroke-linecap="round"/>
<path d="M93.5236 99.2689C93.2741 99.4922 92.9643 99.521 92.6767 99.6733C92.4879 99.7733 92.2951 99.8629 92.1128 99.9743C91.927 100.088 91.6552 100.362 91.9466 100.54C92.1153 100.644 92.4288 100.632 92.6115 100.576C92.9267 100.481 93.3754 100.279 93.6045 100.037C93.9226 99.7015 93.4518 99.3532 93.2405 99.1476C92.9906 98.9045 92.7151 98.7109 92.616 98.3569C92.5116 97.9839 92.5936 97.4932 92.5936 97.1079C92.5936 97.0346 92.6164 96.9099 92.5846 96.8428C92.5652 96.8019 92.4072 96.6908 92.4633 96.7709C92.5326 96.8699 92.0765 97.0088 92.3914 97.1663" stroke="#5989B6" stroke-width="3" stroke-linecap="round"/>
<path d="M91.5018 97.0854C91.377 97.1135 91.2187 97.1374 91.2187 97.2876" stroke="#5989B6" stroke-width="3" stroke-linecap="round"/>
<path d="M90.3696 97.6111C90.302 97.6602 90.2398 97.6962 90.1674 97.7324" stroke="#5989B6" stroke-width="3" stroke-linecap="round"/>
<path d="M92.9575 103.353C93.6812 103.353 94.3602 102.929 94.9478 102.544C95.0453 102.481 95.1442 102.414 95.2534 102.374C95.4143 102.314 95.1554 102.532 95.1186 102.576C94.8581 102.888 94.7158 103.217 94.6356 103.618C94.593 103.831 94.5814 104.313 94.9164 104C95.0982 103.83 95.3088 103.687 95.505 103.533C95.6189 103.443 95.9735 103.192 95.8577 103.279C95.6152 103.461 95.3905 103.672 95.141 103.838" stroke="#5989B6" stroke-width="3" stroke-linecap="round"/>
<path d="M95.9498 102.504C95.8938 102.642 95.8355 102.861 95.7274 102.969C95.6446 103.052 95.5247 103.12 95.4848 103.232C95.4021 103.463 95.1582 103.65 95.1029 103.899C95.0792 104.005 94.8633 104.086 94.7861 104.171C94.7045 104.261 94.6031 104.418 94.5435 104.526C94.5098 104.586 94.3536 104.791 94.503 104.687C94.6757 104.568 94.8218 104.405 94.9883 104.283C95.4437 103.95 95.8036 103.565 96.2935 103.292C96.4944 103.181 96.6546 102.96 96.8708 102.877C96.9242 102.856 97.1621 102.702 97.1943 102.648C97.2582 102.539 97.4113 102.527 97.4459 102.423" stroke="#5989B6" stroke-width="3" stroke-linecap="round"/>
<path d="M97.4459 102.423C97.3049 102.654 97.1263 102.94 96.9382 103.128C96.7125 103.354 96.3592 103.474 96.0711 103.618C95.686 103.811 95.36 104.074 94.9793 104.274C94.7201 104.411 94.5831 104.712 94.2919 104.809" stroke="#5989B6" stroke-width="3" stroke-linecap="round"/>
<path d="M94.2919 104.809C94.3875 104.769 94.5773 104.721 94.6558 104.647C94.7125 104.593 94.766 104.531 94.8355 104.494C94.9256 104.447 95.0804 104.379 95.141 104.303C95.3648 104.024 95.7319 103.745 96.0396 103.555C96.1551 103.484 96.3031 103.402 96.4036 103.322C96.4892 103.253 96.7377 103.105 96.8416 103.07C97.0214 103.01 97.1347 102.809 97.3066 102.746C97.4012 102.712 97.6435 102.553 97.6885 102.463" stroke="#5989B6" stroke-width="3" stroke-linecap="round"/>
<path d="M97.9311 102.504C97.6608 102.941 97.3225 102.859 96.9292 103.092C96.7787 103.182 96.5038 103.26 96.3339 103.313C96.1218 103.378 95.9087 103.49 95.7274 103.616C95.6102 103.697 95.4064 103.822 95.2623 103.838C95.1804 103.847 95.1278 103.94 95.0579 103.98C94.9379 104.047 94.8185 104.114 94.6985 104.182C94.5165 104.284 94.3698 104.439 94.1885 104.535C94.0908 104.586 94.0181 104.705 93.919 104.768C93.8304 104.825 93.7984 104.874 93.7662 104.97" stroke="#5989B6" stroke-width="3" stroke-linecap="round"/>
<path d="M94.211 105.334C94.4899 105.222 95.0201 104.96 95.1905 104.687C95.3673 104.404 95.7947 104.191 96.0531 103.98C96.3006 103.777 96.5856 103.614 96.8596 103.432C96.968 103.359 97.0715 103.254 97.1808 103.191C97.269 103.141 97.37 103.105 97.4459 103.03" stroke="#5989B6" stroke-width="3" stroke-linecap="round"/>
<path d="M97.2842 95.6701C97.0625 95.6701 96.4934 95.7699 96.3227 95.5803C96.1963 95.4398 96.4662 95.1133 96.5563 95.0231" stroke="#5989B6" stroke-width="3" stroke-linecap="round"/>
<path d="M100.317 107.558C100.702 107.337 101.113 107.168 101.521 106.992C101.943 106.81 102.308 106.5 102.725 106.305C103.737 105.831 104.796 105.574 105.857 105.254C106.519 105.054 105.653 105.833 105.502 105.95C105.015 106.327 104.48 106.655 103.974 107.01C103.544 107.312 103.08 107.636 102.703 108.003C102.455 108.244 102.14 108.384 101.876 108.61C101.721 108.742 101.506 108.921 101.573 109.153C101.651 109.427 103.059 108.58 103.206 108.479C103.612 108.201 104.044 107.96 104.473 107.72C105.03 107.408 105.636 107.08 106.234 106.853C106.407 106.787 106.583 106.662 106.724 106.853C106.815 106.977 106.792 107.172 106.784 107.316C106.764 107.686 106.409 107.878 106.14 108.075C105.362 108.642 104.41 108.93 103.568 109.383C103.1 109.633 102.728 109.917 102.581 110.438C102.527 110.63 102.451 110.965 102.743 110.825C103.221 110.594 103.679 110.332 104.138 110.065C104.818 109.671 105.588 109.36 106.326 109.097C106.726 108.955 107.216 108.812 107.645 108.812C107.746 108.812 108.365 108.747 108.395 108.839C108.469 109.062 108.291 109.334 108.175 109.504C107.816 110.029 107.403 110.423 106.859 110.755C106.207 111.152 105.523 111.525 104.846 111.876C104.491 112.06 104.137 112.328 103.94 112.692C103.894 112.777 103.678 113.341 103.857 113.341C104.186 113.341 104.532 113.129 104.821 112.999C105.319 112.776 105.757 112.476 106.23 112.209C106.424 112.099 106.641 111.981 106.818 111.845C107.106 111.624 107.432 111.493 107.737 111.299C107.898 111.196 109.902 110.004 110.044 110.214C110.184 110.42 110.022 110.976 109.927 111.162C109.658 111.69 109.279 112.172 108.809 112.532C108.23 112.976 107.595 113.277 106.987 113.664C106.579 113.924 106.117 114.133 105.938 114.603C105.846 114.843 105.881 115.625 105.854 115.369C105.813 114.975 105.639 114.552 105.506 114.181C105.253 113.474 104.964 112.78 104.641 112.103C104.279 111.344 103.897 110.651 103.844 109.805C103.815 109.341 103.835 108.872 103.835 108.408C103.835 108.038 103.811 107.652 103.916 107.293C103.98 107.073 104.083 106.895 104.158 106.687C104.329 106.217 104.634 105.794 104.814 105.325C104.864 105.196 105.048 105.132 104.906 104.991C104.773 104.857 104.498 104.849 104.32 104.849C103.915 104.849 103.475 105.113 103.082 105.215C102.636 105.332 102.157 105.434 101.732 105.617C101.401 105.761 101.052 105.813 100.699 105.869C100.429 105.912 100.177 105.986 99.9103 106.042C99.7805 106.069 99.6335 106.071 99.5104 106.125C99.4162 106.166 99.4273 106.166 99.4273 106.062C99.4273 105.97 99.5725 105.781 99.6497 105.721C99.7848 105.616 99.9804 105.429 100.146 105.415C100.282 105.404 100.435 105.375 100.591 105.375C100.703 105.375 100.785 105.282 100.903 105.256C101.01 105.232 101.08 105.16 101.184 105.13C101.27 105.105 101.405 105.065 101.49 105.02C101.618 104.952 101.83 104.817 101.975 104.809C102.17 104.797 102.375 104.663 102.563 104.609C102.655 104.583 102.812 104.531 102.905 104.526C103.009 104.52 103.073 104.434 103.17 104.407C103.293 104.371 103.693 104.274 103.763 104.162C103.839 104.04 104.193 104.045 104.32 103.96" stroke="white" stroke-width="3" stroke-linecap="round"/>
<path d="M104.563 104.243C104.386 104.246 104.241 104.305 104.077 104.323C103.998 104.332 103.959 104.44 103.875 104.445C103.778 104.451 103.72 104.531 103.633 104.575C103.527 104.628 103.392 104.646 103.291 104.71C103.113 104.823 102.89 104.886 102.682 104.932C102.487 104.976 102.292 105.121 102.096 105.132C101.914 105.143 101.672 105.19 101.508 105.263C101.273 105.367 100.926 105.351 100.701 105.476C100.373 105.658 99.9773 105.841 99.598 105.972C99.5462 105.99 99.4955 106.015 99.4475 106.042C99.4094 106.063 99.324 106.128 99.324 106.085C99.324 105.958 99.5149 105.765 99.5801 105.658C99.673 105.506 99.9853 105.28 100.157 105.215C100.377 105.133 100.681 105.013 100.863 104.872C100.999 104.766 101.307 104.62 101.481 104.607C101.69 104.59 101.919 104.388 102.137 104.364C102.219 104.355 102.38 104.274 102.46 104.234C102.581 104.173 102.696 104.153 102.824 104.117C102.927 104.087 103.007 104 103.127 104C103.241 104 103.377 103.978 103.489 103.957C103.547 103.947 103.57 103.882 103.633 103.879C103.677 103.876 103.729 103.889 103.772 103.876C103.849 103.854 103.966 103.845 104.037 103.798" stroke="white" stroke-width="3" stroke-linecap="round"/>
<path d="M98.9421 107.154C98.9421 106.731 99.0095 106.451 99.1937 106.103C99.2982 105.905 99.4673 105.802 99.6295 105.658C100.052 105.282 100.657 105.245 101.126 105.011" stroke="white" stroke-width="3" stroke-linecap="round"/>
<path d="M98.7803 106.022C98.9489 105.79 99.1413 105.529 99.4048 105.453C99.4913 105.429 99.68 105.334 99.7418 105.285C99.8439 105.203 99.9664 105.186 100.074 105.132" stroke="white" stroke-width="3" stroke-linecap="round"/>
<path d="M106.787 116.495C106.688 115.634 106.908 114.913 107.103 114.082C107.124 113.995 107.07 113.777 107.151 113.817C107.236 113.86 107.151 114.009 107.151 114.105C107.151 114.741 107.146 115.378 107.151 116.014C107.154 116.459 107.206 116.833 107.335 117.254C107.342 117.277 107.415 117.658 107.456 117.658C107.538 117.658 107.715 117.237 107.739 117.189C107.976 116.721 108.115 116.21 108.292 115.718C108.318 115.644 108.561 114.786 108.665 115.08C108.806 115.481 108.852 115.945 108.912 116.36C109.081 117.532 109.208 118.71 109.377 119.882C109.501 120.746 109.625 121.612 109.779 122.47C109.847 122.846 109.907 123.265 110.049 123.625C110.057 123.646 110.062 123.69 110.085 123.684C110.157 123.664 110.102 123.534 110.102 123.459C110.108 123.004 110.106 122.547 110.085 122.093C110.02 120.69 109.866 119.285 109.73 117.888C109.6 116.556 109.512 115.206 109.316 113.882C109.313 113.862 109.227 113.235 109.215 113.608C109.175 114.91 109.225 116.226 109.384 117.519C109.506 118.514 109.661 119.528 109.986 120.48C110.004 120.534 110.067 120.677 110.082 120.622C110.177 120.286 110.173 119.88 110.206 119.537C110.352 118.03 110.386 116.513 110.379 115.001C110.374 114.101 110.35 113.201 110.296 112.303C110.27 111.881 110.2 110.618 110.183 111.04C110.054 114.263 110.479 117.541 111.066 120.702C111.122 121.004 111.179 121.307 111.257 121.603C111.265 121.633 111.28 121.723 111.298 121.635C111.343 121.415 111.348 121.179 111.365 120.956C111.429 120.146 111.499 119.337 111.549 118.526C111.646 116.941 111.646 115.353 111.72 113.768C111.729 113.569 111.719 113.307 111.781 113.109C111.842 112.91 111.884 113.515 111.906 113.723C112.09 115.387 112.202 117.059 112.369 118.726C112.546 120.488 112.661 122.318 113.252 124.003C113.271 124.056 113.345 124.19 113.36 124.135C113.435 123.862 113.439 123.537 113.459 123.261C113.591 121.38 113.608 119.486 113.618 117.6C113.623 116.75 113.62 115.9 113.62 115.05C113.62 114.116 113.718 116.916 113.791 117.847C113.948 119.834 114.192 121.813 114.667 123.751C114.782 124.219 114.92 124.677 115.101 125.123C115.14 125.221 115.172 125.323 115.227 125.413C115.238 125.432 115.257 125.377 115.26 125.355C115.389 124.47 115.403 123.556 115.463 122.666C115.572 121.04 115.659 119.408 115.889 117.793C115.901 117.715 115.935 117.486 115.948 117.564C116.001 117.899 115.995 118.257 116.006 118.593C116.083 120.882 116.107 123.173 116.345 125.454C116.389 125.866 116.444 126.276 116.514 126.685C116.52 126.721 116.532 126.839 116.532 126.712C116.532 125.786 116.505 124.865 116.451 123.94C116.4 123.073 116.349 122.206 116.33 121.338C116.327 121.215 116.333 121.584 116.343 121.707C116.4 122.402 116.519 123.096 116.658 123.78C116.798 124.474 116.948 125.208 117.213 125.869C117.226 125.903 117.249 125.804 117.251 125.768C117.284 125.155 117.262 124.53 117.242 123.917C117.209 122.909 117.136 121.895 116.954 120.902C116.951 120.883 116.951 120.861 116.941 120.844C116.912 120.795 116.936 120.958 116.936 121.015C116.936 121.692 116.94 122.369 116.968 123.046C117 123.825 117.06 124.602 117.152 125.377C117.187 125.673 117.197 126.075 117.32 126.359C117.33 126.382 117.35 126.429 117.372 126.415C117.477 126.351 117.445 126.178 117.462 126.056C117.547 125.433 117.561 124.802 117.628 124.178C117.694 123.559 117.783 122.944 117.893 122.331C117.918 122.194 117.966 121.801 118.015 121.931C118.139 122.263 118.173 122.68 118.237 123.021C118.401 123.902 118.585 124.778 118.754 125.658C118.869 126.261 118.969 126.867 119.102 127.467C119.134 127.611 119.17 127.796 119.234 127.936C119.254 127.979 119.241 127.842 119.241 127.795C119.241 127.257 119.24 126.719 119.214 126.182C119.159 125.028 119.079 123.856 118.904 122.713C118.783 121.925 119.006 124.307 119.133 125.094C119.167 125.306 119.259 125.938 119.273 125.723C119.301 125.285 119.185 124.754 119.104 124.337C118.958 123.588 118.75 122.859 118.486 122.142C118.436 122.006 118.327 121.631 118.271 121.765C118.169 122.008 118.154 121.663 118.122 121.54C117.977 120.987 117.767 120.455 117.516 119.941C117.448 119.801 117.446 119.823 117.471 119.972C117.564 120.52 117.946 120.963 118.284 121.379C118.442 121.572 118.913 122.153 118.747 121.967C118.479 121.667 118.271 121.267 118.055 120.929C117.901 120.688 117.764 120.434 117.59 120.206C117.516 120.109 117.558 120.217 117.583 120.255" stroke="white" stroke-width="3" stroke-linecap="round"/>
<path d="M110.426 123.248C110.607 123.248 110.885 123.188 111.033 123.329C111.184 123.472 111.357 123.621 111.477 123.791C111.76 124.189 112.022 124.464 112.187 124.93C112.307 125.267 112.447 125.609 112.589 125.937C112.732 126.265 112.811 126.636 112.996 126.945C113.183 127.257 113.393 127.551 113.589 127.857C114.777 129.717 115.698 131.739 117.078 133.476C117.284 133.736 117.474 134.01 117.662 134.285C117.78 134.458 117.969 134.846 117.889 134.381C117.813 133.943 117.64 133.52 117.5 133.101C117.248 132.346 117.032 131.579 116.797 130.818C116.289 129.174 115.789 127.53 115.305 125.878C115.258 125.717 115.157 125.227 115.157 125.395C115.157 125.713 115.292 126.035 115.4 126.325C116.045 128.06 116.75 129.807 117.756 131.369C117.925 131.631 117.996 131.725 118.165 131.968C118.241 132.078 118.346 132.407 118.405 132.287C118.499 132.101 118.057 131.541 117.976 131.423C116.987 129.976 115.83 128.635 114.919 127.134C114.838 127 114.768 126.87 114.699 126.73C114.681 126.693 114.664 126.655 114.647 126.617C114.64 126.602 114.62 126.558 114.627 126.572C114.636 126.59 114.643 126.608 114.652 126.626C114.933 127.231 115.257 127.817 115.579 128.401C116.192 129.511 116.811 130.623 117.543 131.661C118.173 132.555 118.879 133.388 119.565 134.24C119.704 134.413 119.643 134.118 119.636 134.035C119.594 133.478 119.415 132.955 119.21 132.438C118.429 130.469 117.164 128.743 116.294 126.815C116.281 126.786 116.245 126.698 116.249 126.73C116.271 126.902 116.391 127.112 116.464 127.255C116.897 128.097 117.421 128.907 117.943 129.695C118.571 130.644 119.263 131.542 120.034 132.38C120.275 132.641 120.473 132.846 120.722 133.094C120.822 133.195 121.032 133.457 121.187 133.523C121.242 133.546 121.196 132.962 121.191 132.928C121.084 132.241 120.892 131.556 120.71 130.886C120.433 129.863 120.129 128.849 119.877 127.819C119.76 127.344 119.651 126.867 119.551 126.388C119.52 126.239 119.452 126.023 119.452 125.863C119.452 125.798 119.485 125.987 119.504 126.049C119.619 126.427 119.765 126.796 119.915 127.161C120.387 128.31 120.961 129.402 121.649 130.436C122.411 131.581 123.249 132.756 124.264 133.694C124.43 133.847 124.698 134.122 124.925 134.204C125.078 134.259 124.919 133.873 124.875 133.716C124.026 130.677 122.365 127.937 120.917 125.157C120.866 125.058 120.731 124.756 120.755 124.865C120.831 125.208 121.079 125.628 121.238 125.91C121.902 127.081 122.684 128.188 123.491 129.264C124.11 130.089 124.756 130.908 125.477 131.647C125.587 131.759 125.68 131.945 125.837 131.95C125.999 131.956 125.806 131.623 125.751 131.47C125.425 130.552 124.926 129.697 124.401 128.882C123.4 127.326 122.241 125.891 121.196 124.369C121.067 124.181 121.208 124.631 121.218 124.658C121.421 125.222 121.794 125.739 122.126 126.231C122.625 126.973 123.166 127.686 123.703 128.401C123.839 128.583 123.971 128.775 124.12 128.947C124.167 129.001 124.227 129.049 124.17 128.936C123.946 128.493 123.635 128.078 123.363 127.664C122.829 126.852 122.272 126.058 121.685 125.283C121.196 124.637 120.696 123.999 120.239 123.331C120.198 123.272 120.198 123.273 120.23 123.342C120.303 123.502 120.388 123.657 120.477 123.809C120.625 124.064 120.781 124.319 120.948 124.562C121.03 124.679 121.076 124.705 121.043 124.537C120.982 124.229 120.837 123.946 120.704 123.666C120.649 123.551 120.343 122.94 120.677 123.508C121.804 125.432 122.957 127.363 124.35 129.111C125.207 130.188 126.141 131.21 127.039 132.254C127.589 132.893 128.062 133.59 128.604 134.231C128.837 134.505 128.985 134.864 129.193 135.158C129.373 135.414 129.57 135.658 129.768 135.9C129.803 135.942 130.06 136.281 129.921 136.044C129.618 135.526 129.212 135.061 128.831 134.601C128.235 133.881 127.591 133.215 126.906 132.579C126.513 132.214 126.11 131.796 125.648 131.515C125.364 131.342 125.668 132.116 125.691 132.184C126.284 134.017 127.515 135.477 128.506 137.095C128.527 137.13 128.871 137.584 128.847 137.656C128.823 137.73 128.743 137.543 128.696 137.481C128.463 137.173 128.247 136.852 128.016 136.542C127.267 135.536 126.438 134.6 125.574 133.691C125.255 133.356 125.061 133.159 124.745 132.838C124.607 132.698 124.394 132.421 124.21 132.31C124.18 132.292 124.187 132.379 124.192 132.413C124.248 132.754 124.368 133.089 124.491 133.408C124.936 134.56 125.509 135.676 126.124 136.744C126.514 137.422 126.957 138.07 127.436 138.688C127.679 139.001 127.544 138.717 127.45 138.555C127.045 137.863 126.492 137.253 125.967 136.652C125.111 135.673 124.189 134.75 123.269 133.831C123.086 133.648 123.116 133.681 122.961 133.536C122.924 133.502 122.836 133.391 122.84 133.442C122.872 133.838 123.205 134.329 123.399 134.651C124.102 135.815 124.951 136.913 125.819 137.958C126.237 138.461 126.673 138.953 127.124 139.429C127.206 139.516 127.461 139.757 127.405 139.651C127.116 139.107 126.737 138.591 126.369 138.099C125.664 137.156 124.934 136.229 124.147 135.352C123.49 134.618 122.838 133.856 122.141 133.159C121.923 132.941 122.036 133.236 122.081 133.357C122.264 133.847 122.503 134.321 122.746 134.783C123.336 135.909 124.019 136.98 124.722 138.038C124.872 138.264 125.212 138.771 125.378 139.009C125.459 139.124 125.641 139.44 125.787 139.528C125.826 139.551 125.766 139.44 125.747 139.4C125.597 139.086 125.417 138.787 125.235 138.492C124.651 137.547 124.049 136.608 123.386 135.716C122.866 135.015 122.338 134.261 121.721 133.64C121.701 133.619 121.594 133.493 121.586 133.617C121.566 133.964 121.689 134.387 121.766 134.714C122.036 135.86 122.523 136.94 123.069 137.98C123.366 138.546 123.699 139.08 124.082 139.591C124.194 139.74 124.36 139.997 124.52 140.123C124.651 140.226 124.43 139.799 124.352 139.651C123.922 138.84 123.363 138.095 122.782 137.387C122.436 136.966 122.06 136.544 121.694 136.142C121.516 135.947 121.335 135.754 121.155 135.561C120.944 135.334 120.784 135.012 120.492 134.909C120.457 134.897 120.42 134.955 120.418 134.992C120.411 135.155 120.587 136.047 120.593 136.075C120.816 137.081 121.12 138.066 121.506 139.022C121.734 139.589 121.901 139.941 122.184 140.456C122.275 140.621 122.479 141.099 122.516 140.914C122.537 140.811 122.504 140.704 122.489 140.599C122.43 140.171 122.325 139.753 122.218 139.335C122.007 138.512 121.803 137.689 121.595 136.866C121.585 136.825 121.546 136.669 121.546 136.794" stroke="white" stroke-width="3" stroke-linecap="round"/>
<path d="M124.498 140.554C124.873 141.479 125.561 142.258 126.219 142.994C126.514 143.325 126.819 143.646 127.117 143.974C127.142 144 127.212 144.082 127.185 144.059C126.987 143.894 126.8 143.716 126.61 143.542C125.823 142.823 125.005 142.139 124.386 141.269C124.344 141.21 124.351 141.413 124.363 141.484C124.477 142.14 124.706 142.786 124.911 143.416C125.331 144.702 125.857 146.008 126.639 147.121C126.711 147.224 126.78 147.316 126.868 147.404C126.892 147.428 126.932 147.477 126.955 147.453C127.014 147.395 126.918 147.028 126.911 146.991C126.672 145.776 126.187 144.588 125.803 143.414C125.651 142.949 125.485 142.483 125.417 141.997C125.373 141.685 125.353 141.651 125.441 141.974C125.595 142.536 125.843 143.063 126.102 143.583C126.597 144.577 127.127 145.556 127.692 146.512C128.177 147.333 128.69 148.139 129.256 148.907C129.354 149.04 129.608 149.372 129.737 149.518C129.778 149.565 129.867 149.689 129.889 149.63C129.924 149.536 129.863 149.431 129.84 149.334C129.803 149.176 129.68 148.708 129.647 148.583C129.391 147.628 129.11 146.68 128.82 145.735C128.249 143.873 127.648 142.022 126.998 140.186C126.764 139.525 127.281 141.562 127.481 142.235C127.784 143.251 128.129 144.252 128.537 145.232C128.971 146.276 129.422 147.384 130.078 148.314C130.176 148.452 130.482 148.802 130.473 148.633C130.445 148.1 130.241 147.545 130.096 147.038C129.458 144.803 128.625 142.63 127.838 140.444C127.756 140.216 127.498 139.535 127.56 139.77C127.697 140.291 127.993 140.801 128.198 141.296C128.856 142.885 129.526 144.449 130.554 145.843C130.649 145.97 130.739 146.088 130.844 146.204C130.871 146.234 130.905 146.295 130.941 146.276C131.024 146.231 130.923 145.746 130.918 145.712C130.671 143.888 130.061 142.131 129.534 140.375C129.444 140.075 129.368 139.764 129.269 139.467C129.198 139.253 129.339 139.916 129.404 140.132C129.641 140.915 129.998 141.667 130.325 142.415C130.636 143.124 130.954 143.827 131.35 144.495C131.412 144.6 131.798 145.398 131.983 145.393C132.07 145.391 131.902 144.374 131.902 144.373C131.534 142.127 130.751 139.933 129.842 137.854C129.806 137.771 129.607 137.309 129.523 137.167C129.441 137.028 129.461 137.16 129.469 137.236C129.532 137.819 129.726 138.409 129.894 138.966C130.34 140.45 130.949 141.955 131.794 143.261C131.853 143.351 131.943 143.488 131.929 143.288C131.895 142.799 131.74 142.303 131.624 141.83C131.197 140.092 130.624 138.41 130.123 136.695C130.032 136.385 130.102 136.707 130.123 136.803C130.279 137.509 130.528 138.19 130.783 138.865C131.229 140.043 131.706 141.208 132.262 142.338C132.42 142.661 132.694 143.184 132.873 143.515C132.896 143.559 133.1 144.021 133.201 144.075C133.247 144.099 133.224 143.971 133.219 143.92C133.197 143.699 133.162 143.537 133.106 143.313C132.874 142.388 132.537 141.482 132.217 140.586C131.8 139.42 131.357 138.263 130.846 137.135C130.693 136.798 130.551 136.506 130.395 136.172C130.332 136.038 130.271 135.903 130.208 135.769C130.169 135.686 130.132 135.602 130.089 135.52C130.073 135.489 130.068 135.434 130.033 135.433C129.999 135.431 130.24 136.447 130.244 136.461C130.46 137.224 130.713 137.982 130.986 138.726C131.233 139.402 131.513 140.063 131.853 140.698C131.926 140.835 132.14 141.217 132.14 141.062C132.14 140.491 131.98 139.896 131.853 139.346C131.637 138.412 131.388 137.484 131.102 136.569C130.877 135.847 130.629 135.129 130.325 134.435C130.269 134.307 130.258 134.123 130.132 134.062C130.109 134.051 130.122 134.113 130.125 134.139C130.152 134.341 130.244 134.603 130.307 134.779C131.011 136.725 132.034 138.553 133.286 140.197C133.528 140.516 133.712 140.744 133.971 141.033C133.985 141.048 134.174 141.271 134.259 141.3C134.441 141.363 134.253 140.907 134.185 140.727C133.615 139.241 132.85 137.804 132.073 136.416C131.969 136.231 131.859 135.984 131.72 135.814C131.546 135.601 131.844 136.351 131.925 136.614C132.521 138.552 133.35 140.45 134.432 142.167C134.518 142.304 134.956 142.968 135.065 143.124C135.161 143.263 135.225 143.462 135.384 143.515C135.464 143.542 135.388 143.344 135.362 143.264C135.294 143.054 135.117 142.634 135.043 142.459C134.719 141.703 134.369 140.96 134.005 140.222C133.496 139.189 134.035 140.287 133.583 139.355C133.54 139.267 133.432 139.001 133.439 139.099C133.468 139.489 133.773 139.95 133.955 140.276C134.492 141.237 135.104 142.169 135.768 143.046C136.028 143.388 136.304 143.728 136.602 144.039C136.625 144.063 136.692 144.124 136.689 144.09C136.684 144.012 136.593 143.789 136.582 143.762C136.302 143.073 135.915 142.427 135.55 141.781C135.092 140.97 134.623 140.166 134.099 139.395C134.024 139.285 133.911 139.115 134.014 139.359C134.281 139.991 134.608 140.604 134.935 141.206C135.405 142.07 135.93 142.904 136.489 143.713C137.019 144.478 137.569 145.357 138.273 145.982C138.626 146.295 138.252 145.567 138.246 145.555C137.846 144.774 137.351 144.037 136.867 143.306C136.331 142.497 135.778 141.699 135.186 140.93C135.057 140.761 134.844 140.486 134.69 140.312C134.654 140.271 134.553 140.165 134.553 140.22C134.553 140.601 134.946 141.166 135.108 141.478C135.54 142.308 136.049 143.088 136.568 143.866C137.034 144.563 137.494 145.262 138.042 145.899C138.076 145.939 138.337 146.243 138.426 146.314C138.513 146.384 138.438 146.088 138.403 145.982C137.883 144.375 137.119 142.841 136.454 141.291C136.376 141.11 136.094 140.604 136.233 140.743C136.516 141.025 136.752 141.396 137.002 141.705C138.148 143.125 139.307 144.622 140.677 145.838C140.728 145.883 140.777 145.941 140.843 145.957C140.868 145.963 140.872 145.908 140.866 145.883C140.789 145.586 140.639 145.314 140.515 145.034C140.301 144.552 140.047 144.007 139.81 143.538C139.699 143.319 139.584 143.103 139.466 142.889C139.386 142.744 139.308 142.598 139.217 142.459C139.192 142.421 139.143 142.324 139.12 142.363C139.085 142.422 139.136 142.501 139.154 142.567C139.201 142.743 139.259 142.916 139.315 143.088C139.503 143.659 139.634 144.025 139.868 144.591C140.276 145.578 140.748 146.547 141.29 147.467C141.352 147.573 141.416 147.678 141.486 147.779C141.505 147.808 141.521 147.859 141.555 147.855C141.661 147.845 141.472 147.659 141.42 147.566C141.127 147.039 140.75 146.571 140.358 146.114C140.259 145.999 138.624 144.077 138.442 144.227C138.316 144.331 138.469 144.985 138.482 145.079C138.605 145.939 138.743 146.803 138.92 147.653C138.995 148.015 139.071 148.388 139.199 148.736C139.22 148.793 139.187 148.612 139.163 148.556C138.95 148.069 138.626 147.61 138.35 147.159C137.72 146.131 137.031 145.142 136.355 144.144C136.189 143.9 136.028 143.602 135.816 143.389C135.742 143.316 135.835 143.598 135.865 143.697C135.928 143.91 136.046 144.448 136.265 144.558" stroke="white" stroke-width="3" stroke-linecap="round"/>
<path d="M136.265 144.558C136.505 145.61 136.993 146.595 137.312 147.626C137.488 148.195 137.693 148.787 137.754 149.383C137.795 149.773 137.443 149.219 137.39 149.149C135.995 147.327 134.71 145.35 133.789 143.241C133.751 143.155 133.681 142.886 133.677 142.981C133.668 143.207 133.704 143.458 133.731 143.679C133.887 144.989 134.205 146.292 134.54 147.566C134.832 148.68 135.152 149.809 135.649 150.852C135.72 151.001 136.093 151.857 135.995 151.212C135.828 150.107 135.465 149.001 135.074 147.959C134.556 146.576 133.97 145.187 133.183 143.933C133.089 143.783 132.963 143.557 132.823 143.432C132.746 143.363 132.781 143.636 132.778 143.74C132.732 145.262 132.717 146.796 132.859 148.314C133.031 150.141 133.288 152.058 133.83 153.818C133.917 154.1 134.027 154.375 134.144 154.647C134.187 154.745 134.164 154.607 134.162 154.577C134.122 153.864 133.918 153.154 133.769 152.458C133.397 150.72 132.964 149.014 132.399 147.328C132.221 146.796 132.04 146.264 131.844 145.739C131.807 145.64 131.726 145.353 131.702 145.456C131.656 145.654 131.712 145.953 131.731 146.144C131.788 146.681 131.877 147.216 131.97 147.748C132.181 148.957 132.429 150.164 132.763 151.346C132.842 151.628 132.926 151.909 133.003 152.191C133.023 152.266 133.036 152.316 133.025 152.193C132.968 151.547 132.638 150.921 132.36 150.347C132.304 150.231 131.617 148.726 131.446 148.808C131.292 148.881 131.376 149.719 131.381 149.841C131.408 150.508 131.564 151.149 131.767 151.782C131.77 151.791 131.956 152.32 131.988 152.173C132.052 151.876 132.022 151.543 132.01 151.243C131.996 150.901 131.995 150.531 131.875 150.205C131.821 150.059 131.776 150.28 131.758 150.336C131.556 150.974 131.615 151.66 131.615 152.321" stroke="white" stroke-width="3" stroke-linecap="round"/>
<path d="M94.801 96.2247C94.9095 96.0771 95.0259 95.9008 95.175 95.7903C95.2366 95.7447 95.2857 95.6827 95.3488 95.6383C95.4135 95.5927 95.499 95.5543 95.5563 95.5032C95.6676 95.4038 95.8885 95.2415 96.0389 95.2256C96.0875 95.2205 96.1035 95.184 96.1523 95.1822C96.2099 95.1801 96.2863 95.1686 96.343 95.1557C96.4974 95.1204 96.6571 95.0973 96.8112 95.0567C97.0237 95.0008 97.2362 94.8993 97.4506 94.8564" stroke="#5989B6" stroke-width="3" stroke-linecap="round"/>
<path d="M98.6235 94.7478C98.4488 94.7153 98.2841 94.7638 98.1131 94.7901C97.9766 94.8111 97.8345 94.7932 97.698 94.8142C97.4405 94.8538 97.1971 94.9825 96.9415 95.029C96.7186 95.0695 96.5113 95.1659 96.3044 95.2425C96.1168 95.312 95.8552 95.4094 95.7132 95.5514" stroke="#5989B6" stroke-width="3" stroke-linecap="round"/>
<path d="M133.294 165.002C136.22 162.155 139.7 159.99 142.477 156.968C142.905 156.502 143.34 156.023 143.669 155.478C143.847 155.184 143.175 155.957 142.913 156.181C140.683 158.087 138.285 159.904 135.784 161.437C134.881 161.99 133.954 162.545 132.986 162.98C132.942 163 132.272 163.319 132.56 162.959C134.026 161.121 136.273 159.985 137.912 158.309C138.201 158.014 139.079 157.3 138.668 157.33C138.471 157.344 138.318 157.51 138.146 157.606C137.662 157.877 137.047 158.225 136.572 158.479C133.75 159.988 130.764 161.244 127.783 162.405C127.445 162.537 128.358 161.964 128.655 161.756C129.702 161.023 130.748 160.286 131.741 159.479C132.339 158.993 133.037 158.459 133.475 157.809C133.845 157.261 132.825 157.668 132.73 157.702C131.336 158.213 129.97 158.856 128.623 159.479C127.911 159.809 126.918 160.161 126.357 160.756C126.045 161.086 127.138 160.293 127.517 160.043C128.645 159.3 129.795 158.595 130.943 157.883C131.653 157.443 132.36 156.991 133.028 156.489C133.084 156.447 133.241 156.311 133.177 156.34C132.922 156.456 132.682 156.605 132.432 156.734C131.518 157.208 130.594 157.662 129.698 158.17C128.851 158.651 129.55 158.327 129.953 158.128C132.763 156.74 135.649 155.444 138.295 153.755C139.664 152.881 140.924 151.848 142.259 150.924C144.285 149.523 146.085 147.875 147.967 146.296C149.123 145.326 147.513 146.645 147.255 146.87C145.193 148.663 143.315 150.44 141.913 152.808C141.752 153.079 141.196 153.752 141.498 153.659C142.12 153.468 142.731 152.932 143.243 152.563C144.947 151.334 146.703 150.034 148.037 148.392C148.115 148.296 148.177 148.186 148.26 148.094C148.285 148.066 148.248 148.169 148.228 148.2C147.796 148.859 147.044 149.371 146.446 149.855C143.708 152.072 140.856 154.144 138.136 156.383C137.145 157.198 136.072 158.001 134.896 158.538C134.075 158.911 133.248 159.235 132.459 159.676C132.012 159.926 132.508 159.565 132.613 159.485C133.284 158.971 133.978 158.49 134.651 157.979C135.303 157.484 135.824 156.808 136.492 156.346C136.7 156.202 136.577 156.167 136.465 156.335C136.329 156.539 136.939 156.191 137.151 156.069C138.589 155.246 140.02 154.409 141.445 153.563C143.918 152.095 146.972 150.63 148.766 148.285C148.985 147.999 148.917 147.771 148.553 147.972C147.4 148.608 146.366 149.641 145.424 150.541C144.769 151.168 142.977 153.122 143.786 152.712C145.489 151.847 147.086 150.646 148.595 149.488C148.989 149.186 149.446 148.895 149.755 148.498C149.77 148.479 149.922 148.171 149.84 148.403C149.666 148.895 149.24 149.3 148.925 149.701C148.446 150.311 147.994 150.942 147.627 151.627C147.59 151.695 147.136 152.494 147.223 152.595C147.295 152.679 147.368 152.429 147.446 152.35C147.767 152.026 148.033 151.802 148.393 151.499C150.074 150.081 152.118 148.748 153.49 147.009C153.596 146.874 153.599 146.751 153.437 146.913C152.842 147.508 152.292 148.154 151.713 148.764C150.287 150.266 149.021 151.858 147.819 153.542C147.626 153.811 147.741 153.65 147.882 153.499C148.515 152.827 149.231 152.235 149.904 151.605C150.644 150.912 151.332 150.177 152.021 149.435C152.111 149.339 152.574 148.831 152.734 148.711C152.794 148.667 152.77 148.869 152.734 148.935C152.072 150.143 151.159 151.172 150.596 152.446C150.387 152.917 150.773 152.51 150.904 152.393C151.42 151.931 151.943 151.474 152.436 150.988C152.612 150.815 153.653 149.788 152.873 150.552C151.921 151.484 150.922 152.313 150.138 153.404C150.049 153.527 149.789 153.909 150.159 153.67C150.661 153.346 151.14 152.955 151.607 152.584C152.089 152.201 152.593 151.805 153.011 151.35C153.043 151.316 153.497 150.782 153.192 151.142C152.167 152.354 150.984 153.489 150.324 154.957C150.292 155.028 149.916 155.814 150.319 155.585C150.858 155.278 151.375 154.827 151.846 154.425C152.218 154.107 152.545 153.741 152.846 153.356C152.92 153.261 153.057 152.988 153.101 153.1C153.152 153.227 152.92 153.67 152.889 153.824C152.823 154.152 153.45 153.457 153.735 153.281C153.94 153.154 154.133 153.04 154.32 152.887C154.549 152.7 154.847 152.545 155.033 152.313C155.219 152.08 154.789 152.766 154.698 152.84C154.466 153.025 154.378 153.367 154.128 153.51C153.949 153.612 153.619 153.985 153.501 154.132C153.378 154.286 153.203 154.392 153.117 154.563" stroke="#5989B6" stroke-width="3" stroke-linecap="round"/>
<path d="M147.85 144.221C146.904 144.821 146.351 145.805 145.595 146.562C144.989 147.167 144.459 147.644 143.754 148.147C142.16 149.285 140.821 150.809 139.136 151.839C137.65 152.747 136.493 154.214 134.922 155C134.35 155.286 133.465 155.743 133.177 156.287C133.063 156.504 132.835 156.65 132.72 156.91C132.517 157.365 132.426 157.836 132.241 158.298" stroke="#5989B6" stroke-width="3" stroke-linecap="round"/>
<path d="M145.935 144.795C144.897 145.834 143.727 146.848 142.828 148.004C142.405 148.547 142.018 149 141.53 149.488C140.982 150.035 140.231 150.379 139.615 150.85C138.885 151.408 138.084 151.819 137.316 152.313C136.185 153.04 135.073 153.823 133.869 154.425C132.908 154.906 131.911 155.33 131.017 155.904C130.398 156.302 129.698 156.723 129.176 157.245" stroke="#5989B6" stroke-width="3" stroke-linecap="round"/>
<path d="M137.795 160.788C137.188 161.31 136.894 161.686 136.763 162.459C136.705 162.799 136.353 163.413 136.917 163.251C137.617 163.051 138.058 162.494 138.615 162.086C138.913 161.867 139.566 161.024 139.476 161.384C139.432 161.562 138.969 161.876 138.849 162.033C138.589 162.37 138.337 162.709 138.061 163.033C137.731 163.422 137.244 163.674 136.944 164.087C136.728 164.384 136.483 164.544 137.029 164.523C137.445 164.507 137.995 164.098 138.364 163.895C138.65 163.738 140.337 162.54 139.327 163.565C138.794 164.107 138.225 164.615 137.689 165.151C137.638 165.201 137.04 165.803 137.05 165.81C137.237 165.95 138.513 165.415 138.742 165.342C139.067 165.239 139.366 165.092 139.689 164.98C140.271 164.779 140.768 164.464 141.338 164.235" stroke="#5989B6" stroke-width="3" stroke-linecap="round"/>
<path d="M140.764 164.619C140.412 164.896 140.064 165.212 139.753 165.523C139.604 165.672 139.33 165.734 139.232 165.906C139.185 165.987 138.68 166.289 139.285 166.012C139.508 165.91 139.699 165.74 139.923 165.651C140.338 165.485 140.711 165.106 141.094 164.996C141.294 164.939 141.73 164.601 141.817 164.427" stroke="#5989B6" stroke-width="3" stroke-linecap="round"/>
<path d="M141.817 164.427C141.282 164.845 140.79 165.063 140.189 165.363C139.91 165.503 139.259 165.808 139.136 166.055" stroke="#5989B6" stroke-width="3" stroke-linecap="round"/>
<path d="M139.136 166.055C139.679 165.66 140.261 165.367 140.743 164.885C141.005 164.622 141.563 164.065 141.913 163.948" stroke="#5989B6" stroke-width="3" stroke-linecap="round"/>
<path d="M142.105 164.14C141.122 164.855 140.031 165.32 138.944 165.863" stroke="#5989B6" stroke-width="3" stroke-linecap="round"/>
<path d="M139.232 166.055C139.779 166.028 139.889 165.735 140.285 165.502C140.515 165.366 140.617 165.158 140.812 165.049C141.086 164.897 141.588 164.502 141.722 164.235" stroke="#5989B6" stroke-width="3" stroke-linecap="round"/>
<path d="M141.329 165.252C141.432 165.212 141.522 165.16 141.599 165.083C141.603 165.079 141.554 165.11 141.543 165.117C141.515 165.135 141.484 165.149 141.456 165.168C141.412 165.199 141.362 165.232 141.314 165.256C141.264 165.281 141.215 165.306 141.165 165.331C141.131 165.348 141.101 165.374 141.065 165.386C141.015 165.402 140.972 165.439 140.919 165.453C140.899 165.459 140.885 165.473 140.866 165.482C140.831 165.498 140.792 165.51 140.759 165.53C140.73 165.547 140.697 165.555 140.668 165.571C140.614 165.602 140.549 165.614 140.494 165.644C140.44 165.675 140.373 165.685 140.316 165.712C140.269 165.734 140.219 165.751 140.172 165.774C140.103 165.809 140.031 165.853 139.963 165.875" stroke="#5989B6" stroke-width="3" stroke-linecap="round"/>
<path d="M139.963 165.965C139.985 165.965 140.008 165.965 140.023 165.95" stroke="#5989B6" stroke-width="3" stroke-linecap="round"/>
<path d="M141.952 164.517C142.035 164.519 142.117 164.563 142.199 164.577" stroke="#5989B6" stroke-width="3" stroke-linecap="round"/>
<path d="M155.756 151.999C155.678 152.059 155.607 152.14 155.54 152.213C155.475 152.283 155.403 152.34 155.333 152.405C155.278 152.455 155.217 152.496 155.163 152.548C155.051 152.654 154.909 152.711 154.784 152.794C154.662 152.876 154.517 152.94 154.423 153.061C154.364 153.137 154.286 153.22 154.219 153.29C154.151 153.36 154.099 153.442 154.047 153.523C154.018 153.568 153.986 153.606 153.957 153.651C153.921 153.708 153.876 153.784 153.823 153.825C153.723 153.905 153.623 153.986 153.521 154.066C153.45 154.121 153.426 154.173 153.409 154.268C153.406 154.281 153.389 154.398 153.42 154.384C153.44 154.376 153.469 154.348 153.487 154.335C153.529 154.302 153.587 154.268 153.638 154.251C153.665 154.242 153.681 154.212 153.711 154.207C153.731 154.203 153.731 154.183 153.75 154.173" stroke="#5989B6" stroke-width="3" stroke-linecap="round"/>
<path d="M153.75 154.173C153.878 154.015 154.082 153.947 154.209 153.788C154.295 153.68 154.443 153.589 154.557 153.516C154.754 153.389 154.903 153.214 155.095 153.086" stroke="#5989B6" stroke-width="3" stroke-linecap="round"/>
<path d="M155.095 153.086C155.042 153.139 154.997 153.205 154.939 153.248C154.9 153.277 154.847 153.356 154.798 153.366C154.751 153.377 154.71 153.435 154.669 153.458C154.633 153.478 154.606 153.509 154.569 153.528C154.537 153.543 154.494 153.567 154.468 153.59C154.426 153.627 154.364 153.663 154.316 153.691C154.248 153.73 154.186 153.793 154.137 153.853C154.087 153.914 154.019 153.968 153.963 154.027C153.925 154.068 153.872 154.159 153.818 154.173" stroke="#5989B6" stroke-width="3" stroke-linecap="round"/>
<path d="M153.795 154.218C153.775 154.246 153.75 154.282 153.75 154.318" stroke="#5989B6" stroke-width="3" stroke-linecap="round"/>
<path d="M153.75 154.318V154.442" stroke="#5989B6" stroke-width="3" stroke-linecap="round"/>
<path d="M153.75 154.442C153.762 154.495 153.785 154.558 153.84 154.576" stroke="#5989B6" stroke-width="3" stroke-linecap="round"/>
<path d="M153.84 154.576C153.888 154.594 153.925 154.599 153.975 154.599" stroke="#5989B6" stroke-width="3" stroke-linecap="round"/>
<path d="M154.087 154.442C154.139 154.425 154.208 154.432 154.255 154.408" stroke="#5989B6" stroke-width="3" stroke-linecap="round"/>
<path d="M154.838 153.635C154.864 153.63 154.889 153.627 154.916 153.624" stroke="#5989B6" stroke-width="3" stroke-linecap="round"/>
<path d="M155.062 153.433C155.094 153.426 155.119 153.411 155.151 153.411" stroke="#5989B6" stroke-width="3" stroke-linecap="round"/>
<path d="M155.689 151.786C155.717 151.843 155.733 151.888 155.763 151.942C155.783 151.979 155.816 152 155.841 152.032C155.882 152.084 155.931 152.111 155.936 152.189C155.938 152.222 155.952 152.262 155.959 152.294C155.962 152.311 155.966 152.347 155.975 152.363C155.997 152.402 155.992 152.492 155.992 152.537" stroke="#5989B6" stroke-width="3" stroke-linecap="round"/>
<path d="M155.779 152.593C155.807 152.613 155.843 152.637 155.88 152.637" stroke="#5989B6" stroke-width="3" stroke-linecap="round"/>
<path d="M155.756 152.716C155.775 152.73 155.792 152.751 155.813 152.761" stroke="#5989B6" stroke-width="3" stroke-linecap="round"/>
<path d="M155.521 153.052C155.544 153.062 155.559 153.071 155.577 153.086" stroke="#5989B6" stroke-width="3" stroke-linecap="round"/>
<path d="M155.14 153.265C155.187 153.302 155.228 153.324 155.275 153.355" stroke="#5989B6" stroke-width="3" stroke-linecap="round"/>
<path d="M154.826 153.612C154.852 153.631 154.974 153.673 154.983 153.691" stroke="#5989B6" stroke-width="3" stroke-linecap="round"/>
<path d="M154.232 153.568C154.289 153.639 154.381 153.691 154.451 153.73C154.507 153.761 154.567 153.796 154.625 153.825" stroke="#5989B6" stroke-width="3" stroke-linecap="round"/>
<path d="M154.367 153.332C154.39 153.391 154.422 153.477 154.463 153.523C154.507 153.572 154.499 153.651 154.524 153.708C154.534 153.731 154.559 153.755 154.58 153.767C154.605 153.781 154.613 153.814 154.625 153.841C154.645 153.886 154.7 153.929 154.714 153.971" stroke="#5989B6" stroke-width="3" stroke-linecap="round"/>
<path d="M146.583 147.898C146.425 147.774 146.251 147.658 146.064 147.588C145.988 147.56 145.951 147.512 145.864 147.512C145.811 147.512 145.761 147.523 145.72 147.49C145.671 147.451 145.516 147.464 145.45 147.435C145.391 147.409 145.28 147.417 145.235 147.367C145.132 147.253 145.6 146.976 145.416 146.849C145.184 146.688 144.89 146.597 144.627 146.496C144.507 146.449 144.667 146.244 144.698 146.186C144.755 146.076 144.81 145.991 144.815 145.86C144.821 145.67 144.597 145.579 144.428 145.529C144.358 145.508 144.298 145.482 144.228 145.461C144.13 145.432 144.205 145.402 144.256 145.351C144.387 145.22 144.498 145.094 144.661 145.004C144.777 144.94 144.878 144.86 145.002 144.81C145.081 144.779 145.248 144.684 145.284 144.611" stroke="#5989B6" stroke-width="3" stroke-linecap="round"/>
<path d="M143.599 147.76C143.458 147.76 143.321 147.733 143.185 147.733C143.068 147.733 143.002 147.638 142.902 147.595C142.848 147.571 142.505 147.424 142.549 147.401" stroke="#5989B6" stroke-width="3" stroke-linecap="round"/>
<path d="M143.24 146.904C143.128 146.866 142.975 146.766 142.853 146.766" stroke="#5989B6" stroke-width="3" stroke-linecap="round"/>
<path d="M143.157 146.407H143.378" stroke="#5989B6" stroke-width="3" stroke-linecap="round"/>
<path d="M143.654 145.965C143.578 145.935 143.514 145.909 143.433 145.909" stroke="#5989B6" stroke-width="3" stroke-linecap="round"/>
<path d="M143.903 145.661C143.848 145.661 143.736 145.687 143.709 145.633" stroke="#5989B6" stroke-width="3" stroke-linecap="round"/>
<path d="M143.82 145.329H144.041" stroke="#5989B6" stroke-width="3" stroke-linecap="round"/>
<path d="M144.4 144.998C144.343 144.999 144.286 145 144.234 145.025" stroke="#5989B6" stroke-width="3" stroke-linecap="round"/>
<path d="M145.063 144.362C144.978 144.395 144.915 144.436 144.842 144.473" stroke="#5989B6" stroke-width="3" stroke-linecap="round"/>
<path d="M145.312 145.108C145.099 145.213 144.91 145.163 144.676 145.163" stroke="#5989B6" stroke-width="3" stroke-linecap="round"/>
<path d="M144.676 145.163L144.538 145.219" stroke="#5989B6" stroke-width="3" stroke-linecap="round"/>
<path d="M133.046 156.048C132.894 155.901 132.711 155.843 132.536 155.732C132.415 155.655 132.266 155.577 132.128 155.523C131.825 155.407 131.548 155.332 131.222 155.413" stroke="#5989B6" stroke-width="3" stroke-linecap="round"/>
<path d="M131.084 156.131C130.819 156.126 130.666 156.008 130.438 155.938C130.303 155.896 130.23 155.807 130.366 155.717" stroke="#5989B6" stroke-width="3" stroke-linecap="round"/>
<path d="M130.78 155.827C130.652 155.827 130.521 155.835 130.394 155.827C130.318 155.823 130.436 155.688 130.449 155.662" stroke="#5989B6" stroke-width="3" stroke-linecap="round"/>
<path d="M132.023 156.076C131.949 155.975 131.863 155.868 131.858 155.738C131.854 155.631 131.794 155.558 131.72 155.494C131.593 155.385 131.425 155.22 131.25 155.22" stroke="#5989B6" stroke-width="3" stroke-linecap="round"/>
<path d="M131.112 155.523C131.156 155.411 131.171 155.295 131.222 155.192" stroke="#5989B6" stroke-width="3" stroke-linecap="round"/>
<path d="M130.504 155.772C130.526 155.66 130.541 155.587 130.587 155.496" stroke="#5989B6" stroke-width="3" stroke-linecap="round"/>
<path d="M129.841 156.214C129.841 156.094 129.833 156.032 129.896 155.938" stroke="#5989B6" stroke-width="3" stroke-linecap="round"/>
<path d="M132.051 154.833C132.068 154.744 132.074 154.601 132.162 154.556" stroke="#5989B6" stroke-width="3" stroke-linecap="round"/>
<path d="M132.659 154.418C132.704 154.361 132.759 154.285 132.825 154.253" stroke="#5989B6" stroke-width="3" stroke-linecap="round"/>
<path d="M133.902 154.142C133.947 154.068 133.993 153.993 134.04 153.921" stroke="#5989B6" stroke-width="3" stroke-linecap="round"/>
<path d="M134.068 153.866C134.096 153.8 134.178 153.716 134.178 153.645" stroke="#5989B6" stroke-width="3" stroke-linecap="round"/>
<path d="M134.731 154.778C134.781 154.466 134.839 154.16 134.895 153.854C134.914 153.75 134.924 153.685 134.958 153.583C134.989 153.489 135.035 153.384 135.035 153.286" stroke="#5989B6" stroke-width="3" stroke-linecap="round"/>
<path d="M135.477 153.175L135.587 153.065" stroke="#5989B6" stroke-width="3" stroke-linecap="round"/>
<path d="M136.941 154.833C136.941 154.535 136.858 154.297 136.829 154.002C136.809 153.8 136.745 153.632 136.609 153.479C136.517 153.375 136.444 153.204 136.444 153.065C136.444 152.991 136.43 152.927 136.415 152.857C136.398 152.785 136.302 152.754 136.278 152.706" stroke="#5989B6" stroke-width="3" stroke-linecap="round"/>
<path d="M137.355 153.092C137.275 152.982 137.215 152.74 137.107 152.672C136.988 152.597 136.952 152.407 136.83 152.346" stroke="#5989B6" stroke-width="3" stroke-linecap="round"/>
<path d="M137.936 152.374C137.828 152.307 137.731 152.221 137.645 152.153C137.581 152.101 137.549 152.036 137.466 152.015" stroke="#5989B6" stroke-width="3" stroke-linecap="round"/>
<path d="M138.709 151.987C138.598 151.907 138.483 151.839 138.379 151.752C138.33 151.711 138.208 151.647 138.184 151.6" stroke="#5989B6" stroke-width="3" stroke-linecap="round"/>
<path d="M139.096 151.545C138.835 151.393 138.627 151.223 138.35 151.131" stroke="#5989B6" stroke-width="3" stroke-linecap="round"/>
<path d="M140.063 150.855C139.818 150.732 139.564 150.614 139.344 150.468" stroke="#5989B6" stroke-width="3" stroke-linecap="round"/>
<path d="M140.118 150.495C140.06 150.459 139.857 150.369 139.814 150.316C139.782 150.276 139.674 150.219 139.621 150.219" stroke="#5989B6" stroke-width="3" stroke-linecap="round"/>
<path d="M141.03 150.109C140.917 150.023 140.822 149.9 140.698 149.839C140.599 149.789 140.484 149.706 140.394 149.639" stroke="#5989B6" stroke-width="3" stroke-linecap="round"/>
<path d="M141.914 149.473C141.731 149.366 141.539 149.292 141.361 149.203C141.242 149.144 141.136 149.059 141.002 149.059" stroke="#5989B6" stroke-width="3" stroke-linecap="round"/>
<path d="M142.356 148.313C142.225 148.307 141.972 148.25 141.858 148.175" stroke="#5989B6" stroke-width="3" stroke-linecap="round"/>
<path d="M138.571 152.098C138.357 152.168 138.151 152.166 137.977 152.03C137.874 151.95 137.59 151.916 137.549 151.794" stroke="#5989B6" stroke-width="3" stroke-linecap="round"/>
<path d="M137.659 152.319C137.497 152.319 137.148 152.383 137.01 152.276C136.936 152.218 136.801 152.138 136.72 152.098" stroke="#5989B6" stroke-width="3" stroke-linecap="round"/>
<path d="M136.582 153.369C136.233 153.232 135.986 153.049 135.725 152.788" stroke="#5989B6" stroke-width="3" stroke-linecap="round"/>
<path d="M139.089 150.69C138.948 150.687 138.688 150.664 138.617 150.521" stroke="#5989B6" stroke-width="3" stroke-linecap="round"/>
<path d="M140.271 149.947C139.999 149.941 139.896 149.779 139.629 149.779" stroke="#5989B6" stroke-width="3" stroke-linecap="round"/>
<path d="M140.71 149.475C140.585 149.423 140.464 149.348 140.338 149.306" stroke="#5989B6" stroke-width="3" stroke-linecap="round"/>
<path d="M141.115 149.036C141.066 148.922 141.012 148.8 140.878 148.8" stroke="#5989B6" stroke-width="3" stroke-linecap="round"/>
<path d="M141.79 148.327C141.698 148.209 141.646 148.2 141.52 148.158" stroke="#5989B6" stroke-width="3" stroke-linecap="round"/>
<path d="M142.06 147.888C141.993 147.839 141.909 147.753 141.824 147.753" stroke="#5989B6" stroke-width="3" stroke-linecap="round"/>
<path d="M142.465 147.213C142.398 147.2 142.331 147.189 142.263 147.179" stroke="#5989B6" stroke-width="3" stroke-linecap="round"/>
<path d="M138.38 151.298C138.174 151.383 137.921 151.467 137.705 151.467" stroke="#5989B6" stroke-width="3" stroke-linecap="round"/>
<path d="M134.532 155.416C134.446 155.028 134.204 154.748 133.943 154.486C133.863 154.406 133.818 154.318 133.714 154.242C133.586 154.149 133.486 154.133 133.688 154.032" stroke="#5989B6" stroke-width="3" stroke-linecap="round"/>
<path d="M133.856 153.729V153.965" stroke="#5989B6" stroke-width="3" stroke-linecap="round"/>
<path d="M135.004 153.627C134.933 153.584 134.639 153.437 134.599 153.357" stroke="#5989B6" stroke-width="3" stroke-linecap="round"/>
<path d="M135.342 153.188C135.26 153.156 135.179 153.124 135.105 153.087" stroke="#5989B6" stroke-width="3" stroke-linecap="round"/>
<path d="M135.949 152.851C135.813 152.798 135.718 152.783 135.578 152.783" stroke="#5989B6" stroke-width="3" stroke-linecap="round"/>
<path d="M136.49 152.446C136.376 152.446 136.28 152.459 136.186 152.412" stroke="#5989B6" stroke-width="3" stroke-linecap="round"/>
<path d="M137.469 151.838C137.363 151.817 137.264 151.804 137.165 151.77" stroke="#5989B6" stroke-width="3" stroke-linecap="round"/>
<path d="M137.874 151.635C137.784 151.57 137.646 151.5 137.536 151.5" stroke="#5989B6" stroke-width="3" stroke-linecap="round"/>
<path d="M138.414 151.23C138.306 151.152 138.173 151.095 138.043 151.095" stroke="#5989B6" stroke-width="3" stroke-linecap="round"/>
<path d="M139.899 150.049C139.667 150.049 139.435 149.981 139.224 149.981" stroke="#5989B6" stroke-width="3" stroke-linecap="round"/>
<path d="M140.406 149.373C140.292 149.371 140.123 149.347 140.068 149.238" stroke="#5989B6" stroke-width="3" stroke-linecap="round"/>
<path d="M140.541 149.171C140.561 149.068 140.605 148.984 140.507 148.935" stroke="#5989B6" stroke-width="3" stroke-linecap="round"/>
<path d="M140.71 148.833L140.676 148.664" stroke="#5989B6" stroke-width="3" stroke-linecap="round"/>
<path d="M141.857 148.563C141.672 148.428 141.48 148.361 141.25 148.361" stroke="#5989B6" stroke-width="3" stroke-linecap="round"/>
<path d="M141.621 148.226C141.519 148.206 141.379 148.124 141.284 148.124" stroke="#5989B6" stroke-width="3" stroke-linecap="round"/>
<path d="M142.296 147.82C142.099 147.708 141.973 147.685 141.756 147.685" stroke="#5989B6" stroke-width="3" stroke-linecap="round"/>
<path d="M144.187 147.28C143.976 147.235 143.701 147.126 143.529 146.991C143.44 146.923 143.359 146.848 143.242 146.841C143.17 146.837 143.054 146.794 142.988 146.757C142.904 146.71 142.937 146.605 142.837 146.538" stroke="#5989B6" stroke-width="3" stroke-linecap="round"/>
<path d="M145.807 145.288C145.658 145.285 145.528 145.251 145.385 145.219C145.327 145.206 145.273 145.153 145.217 145.153C145.103 145.153 144.995 145.052 144.879 145.052C144.808 145.052 144.843 144.985 144.761 144.985C144.697 144.985 144.661 144.951 144.592 144.951C144.427 144.951 144.457 144.81 144.457 144.681" stroke="#5989B6" stroke-width="3" stroke-linecap="round"/>
<path d="M145.166 144.613C144.999 144.516 144.845 144.52 144.693 144.444" stroke="#5989B6" stroke-width="3" stroke-linecap="round"/>
<path d="M144.322 145.997C144.229 145.779 144.153 145.665 144.153 145.424C144.153 145.263 144.174 145.153 143.984 145.153" stroke="#5989B6" stroke-width="3" stroke-linecap="round"/>
<path d="M143.545 146.335C143.485 146.255 143.42 146.162 143.324 146.134C143.265 146.117 143.205 146.16 143.174 146.099" stroke="#5989B6" stroke-width="3" stroke-linecap="round"/>
<path d="M139.073 154.006C138.837 153.907 138.646 153.736 138.417 153.635C138.284 153.577 138.116 153.524 138 153.436C137.925 153.38 137.934 153.289 137.894 153.215C137.772 152.989 137.699 152.612 137.519 152.433C137.32 152.233 136.888 152.338 136.719 152.126C136.675 152.071 136.671 151.997 136.691 151.925C136.726 151.802 136.553 151.827 136.473 151.827" stroke="#5989B6" stroke-width="3" stroke-linecap="round"/>
<path d="M139.073 151.757C139.004 151.757 138.752 151.794 138.687 151.741C138.606 151.677 138.429 151.638 138.32 151.618C138.217 151.6 138.028 151.547 137.931 151.493C137.74 151.387 137.395 151.265 137.176 151.265" stroke="#5989B6" stroke-width="3" stroke-linecap="round"/>
<path d="M140.198 151.125C140.005 151.125 139.871 151.085 139.69 151.052C139.609 151.038 139.524 150.984 139.442 150.984C139.341 150.984 139.27 150.894 139.179 150.88C139.082 150.867 138.974 150.862 138.88 150.841C138.634 150.787 138.257 150.733 138.054 150.597" stroke="#5989B6" stroke-width="3" stroke-linecap="round"/>
<path d="M139.319 150.387C139.074 150.339 138.828 150.211 138.581 150.211" stroke="#5989B6" stroke-width="3" stroke-linecap="round"/>
<path d="M140.268 149.895C140.091 149.861 139.839 149.856 139.688 149.772C139.62 149.733 139.393 149.719 139.319 149.719" stroke="#5989B6" stroke-width="3" stroke-linecap="round"/>
<path d="M141.709 149.192C141.205 149.192 140.724 148.981 140.233 148.981" stroke="#5989B6" stroke-width="3" stroke-linecap="round"/>
<path d="M139.671 149.438H140.198" stroke="#5989B6" stroke-width="3" stroke-linecap="round"/>
<path d="M139.671 150.07C139.441 150.07 139.134 150.101 138.933 150" stroke="#5989B6" stroke-width="3" stroke-linecap="round"/>
<path d="M137.703 153.444C137.318 153.164 136.9 153.016 136.488 152.829C136.321 152.753 136.163 152.732 135.989 152.679C135.837 152.632 135.601 152.53 135.454 152.53" stroke="#5989B6" stroke-width="3" stroke-linecap="round"/>
<path d="M136.473 152.214C136.324 152.18 136.238 152.144 136.086 152.144" stroke="#5989B6" stroke-width="3" stroke-linecap="round"/>
<path d="M137.176 151.757C137.021 151.702 136.947 151.652 136.789 151.652" stroke="#5989B6" stroke-width="3" stroke-linecap="round"/>
<path d="M136.086 153.549C136.006 153.549 135.586 153.574 135.524 153.497C135.475 153.435 135.3 153.388 135.225 153.372C135.034 153.329 134.817 153.143 134.645 153.057" stroke="#5989B6" stroke-width="3" stroke-linecap="round"/>
<path d="M134.891 153.69C134.631 153.639 134.383 153.479 134.118 153.479" stroke="#5989B6" stroke-width="3" stroke-linecap="round"/>
<path d="M134.259 153.936C134.001 153.936 133.744 153.907 133.521 153.795" stroke="#5989B6" stroke-width="3" stroke-linecap="round"/>
<path d="M132.888 155.552C132.579 155.484 132.381 155.257 132.115 155.138C132.008 155.091 131.623 155.04 131.623 154.92" stroke="#5989B6" stroke-width="3" stroke-linecap="round"/>
<path d="M131.904 156.115C131.638 156.115 131.372 156.065 131.114 156.007C130.989 155.979 130.874 155.946 130.745 155.939C130.663 155.934 130.64 155.833 130.534 155.833" stroke="#5989B6" stroke-width="3" stroke-linecap="round"/>
<path d="M131.096 156.361C130.962 156.277 130.848 156.189 130.772 156.06C130.736 155.999 130.603 155.995 130.552 155.954C130.444 155.871 130.174 155.798 130.042 155.798" stroke="#5989B6" stroke-width="3" stroke-linecap="round"/>
<path d="M142.284 149.234C142.015 149.162 141.76 149.08 141.523 148.962C141.443 148.922 141.25 148.876 141.185 148.811C141.134 148.76 141.176 148.688 141.157 148.624C141.146 148.586 140.931 148.574 140.894 148.572C140.825 148.568 140.729 148.544 140.729 148.473C140.729 148.349 140.79 148.34 140.63 148.34" stroke="#5989B6" stroke-width="3" stroke-linecap="round"/>
<path d="M142.053 147.91C141.782 147.91 141.51 147.928 141.258 147.844" stroke="#5989B6" stroke-width="3" stroke-linecap="round"/>
<path d="M142.086 147.646C142.027 147.623 141.678 147.526 141.655 147.48" stroke="#5989B6" stroke-width="3" stroke-linecap="round"/>
<path d="M142.814 147.017C142.643 146.989 142.483 146.951 142.317 146.951" stroke="#5989B6" stroke-width="3" stroke-linecap="round"/>
<path d="M143.045 146.587C142.893 146.587 142.77 146.554 142.615 146.554" stroke="#5989B6" stroke-width="3" stroke-linecap="round"/>
<path d="M142.218 146.951H142.516" stroke="#5989B6" stroke-width="3" stroke-linecap="round"/>
<path d="M141.887 147.447H142.086" stroke="#5989B6" stroke-width="3" stroke-linecap="round"/>
<path d="M143.111 146.024H143.575" stroke="#5989B6" stroke-width="3" stroke-linecap="round"/>
<path d="M139.769 149.068H140.266" stroke="#5989B6" stroke-width="3" stroke-linecap="round"/>
<path d="M139.869 149.896C139.561 149.896 139.289 149.763 138.975 149.763" stroke="#5989B6" stroke-width="3" stroke-linecap="round"/>
<path d="M138.876 150.26C138.709 150.26 138.537 150.227 138.38 150.227" stroke="#5989B6" stroke-width="3" stroke-linecap="round"/>
<path d="M138.578 150.756C138.277 150.756 138.017 150.69 137.718 150.69" stroke="#5989B6" stroke-width="3" stroke-linecap="round"/>
<path d="M137.288 151.616C137.055 151.611 136.853 151.517 136.626 151.517" stroke="#5989B6" stroke-width="3" stroke-linecap="round"/>
<path d="M137.453 151.385C137.296 151.323 137.128 151.321 136.99 151.252" stroke="#5989B6" stroke-width="3" stroke-linecap="round"/>
<path d="M136.295 152.146C136.199 152.146 136.076 152.177 136.004 152.105C135.971 152.072 135.913 152.046 135.865 152.046" stroke="#5989B6" stroke-width="3" stroke-linecap="round"/>
<path d="M135.799 152.51C135.632 152.51 135.44 152.535 135.302 152.444" stroke="#5989B6" stroke-width="3" stroke-linecap="round"/>
<path d="M135.269 153.436C135.097 153.269 135.034 153.212 134.813 153.164C134.771 153.155 134.494 153.113 134.574 153.072" stroke="#5989B6" stroke-width="3" stroke-linecap="round"/>
<path d="M135.898 152.841C135.722 152.81 135.502 152.685 135.335 152.675C135.226 152.669 135.114 152.675 135.004 152.675" stroke="#5989B6" stroke-width="3" stroke-linecap="round"/>
<path d="M134.806 153.337C134.584 153.337 134.38 153.271 134.177 153.271" stroke="#5989B6" stroke-width="3" stroke-linecap="round"/>
<path d="M134.971 152.973C134.86 152.93 134.738 152.922 134.64 152.874" stroke="#5989B6" stroke-width="3" stroke-linecap="round"/>
<path d="M134.144 154.33C134.014 154.326 133.878 154.278 133.764 154.214C133.681 154.168 133.569 154.195 133.482 154.157C133.316 154.083 133.105 154.032 132.92 154.032" stroke="#5989B6" stroke-width="3" stroke-linecap="round"/>
<path d="M134.21 153.502C134.047 153.502 133.894 153.469 133.747 153.469" stroke="#5989B6" stroke-width="3" stroke-linecap="round"/>
<path d="M133.317 153.767H133.515" stroke="#5989B6" stroke-width="3" stroke-linecap="round"/>
<path d="M132.787 154.396C132.662 154.371 132.516 154.33 132.39 154.33" stroke="#5989B6" stroke-width="3" stroke-linecap="round"/>
<path d="M131.993 154.991C131.766 154.991 131.662 155.036 131.662 154.793" stroke="#5989B6" stroke-width="3" stroke-linecap="round"/>
<path d="M131.96 155.951C131.816 155.807 131.679 155.683 131.58 155.504C131.534 155.422 131.423 155.389 131.331 155.389C131.279 155.389 131.133 155.36 131.133 155.306C131.133 155.187 131.031 155.223 130.934 155.223" stroke="#5989B6" stroke-width="3" stroke-linecap="round"/>
</g>
</svg>
